<?xml version="1.0" encoding="UTF-8"?><svg id="Layer_2" xmlns="http://www.w3.org/2000/svg" width="27.16" height="21.65" viewBox="0 0 27.16 21.65"><defs><style>.cls-1{fill:#f57971;}.cls-2{fill:#f8eb00;}.cls-3{fill:#ff1e1c;}.cls-4{fill:#c8b1dd;}.cls-5{fill:#1956ff;}.cls-6{fill:#2befe5;}</style></defs><ellipse class="cls-1" cx="12.92" cy="10.91" rx="9.37" ry="5.56"/><path class="cls-6" d="M13.04,14.65c-.22,.03-.46,.04-.69,.04h-.09c.27-.02,.53-.03,.78-.04Z"/><path class="cls-2" d="M19.45,17.96c-.87,1.04-3.55,2.02-4.22,1.82-.67-.21-1.28-.28-2.01-.36-.72-.08-1.65,.33-2.26,.54-.61,.22-2.39-.11-4.04-.88-1.64-.77-2.12-1.92-2.7-3.01-.34-.65-.54-1.71-.67-2.5,.51,.24,1.03,.57,1.6,1.18,1.3,1.38,1.07,2.98,3.21,3.36s3.41-1.39,5.98-1.13c1.64,.17,4.7,.17,5.62-.53,1.29-.98,1.88-2,2.33-2.81-.03,.29-.1,.67-.27,1.08-.39,.92-1.7,2.2-2.57,3.24h0Z"/><path class="cls-5" d="M17.81,11.2c-.7-1.14-2.05-.63-3.28-1.05-1.23-.42-2.81-1.39-3.89-1.66-1.08-.27-2.38,1.08-2.54,1.83-.2,.92,.54,1.16,.12,1.85-.28,.46-.69,1.18-.09,1.85,.27,.29,.79,.73,1.3,1.13,.11-.03,.22-.05,.32-.08,.9-.22,1.74-.33,2.51-.39-1.56-.07-2.79-.93-2.76-1.95,.02-1.04,1.35-1.85,2.95-1.81,1.6,.04,2.88,.91,2.86,1.95-.02,.89-.98,1.6-2.26,1.77,1.55-.03,2.7,.17,3.27,.23,.02,0,.05,0,.08,0,.14,0,.28,.02,.41,.01,.22-.14,.42-.31,.55-.54,.66-1.08,1.15-2.03,.45-3.17h0Z"/><path class="cls-4" d="M23.06,12.44c-.28,.29-.49,.7-.77,1.19-.45,.81-1.04,1.83-2.33,2.81-.92,.7-3.98,.7-5.62,.53-2.57-.26-3.84,1.51-5.98,1.13-2.14-.38-1.9-1.98-3.21-3.36-.57-.6-1.09-.93-1.6-1.18-.65-.31-1.28-.5-1.96-1-1.17-.86,.34-4.28,.43-4.46h0c.54,2.39,1.95,2.97,2.88,3.4,.07,.03,.14,.07,.2,.1,.52,.25,1.27,1.51,2.11,2.47,.65,.75,1.35,1.32,2.05,1.13,.05-.02,.11-.03,.17-.04,.11-.03,.22-.05,.32-.08,.9-.22,1.74-.33,2.51-.39h.1c.24,0,.47,0,.69-.04,1.55-.03,2.7,.17,3.27,.23,.02,0,.05,0,.08,0,.14,0,.28,.02,.41,.01,1.26,0,2.13-.51,2.51-.7,.1-.05,.23-.17,.39-.35,.56-.61,1.44-1.81,2.09-2.25,.07-.05,.16-.1,.26-.14,0,.08,0,.16,0,.24-.05,.57,.52,.67,1.24,.5-.08,.09-.16,.17-.22,.24h0Z"/><path class="cls-3" d="M23.28,12.2c-.72,.17-1.28,.07-1.24-.5,0-.08,0-.17,0-.24-.06-1.33-1.59-1.68-2.87-2.07-1.35-.41-2.15-2.23-2.95-2.84-.81-.61-2.38-1.12-3.54-.88-1.16,.24-2.97,1.13-3.76,1.54s-2.39-.21-3.65,1.07c-.88,.9-.62,2.41-.38,3.23-.93-.43-2.34-1.02-2.87-3.41h0c-.06-.4-.14-.78-.28-1.02-.38-.65,.68-2.14,1.4-2.29,.72-.16,2.07-.43,2.92-.95,.85-.52,1.46-1.42,2.23-1.91,.77-.48,1.93-.3,2.58-.36,.64-.06,1.26-.24,3.72-.82,2.46-.58,4.89,1.23,5.49,1.74,.6,.51,.61,1.89,1.81,3.39,1.19,1.5,1.14,1.05,2.49,1.85,1.35,.8,1.47,1.28,1.61,2.47,.09,.74-1.52,1.74-2.71,2.01h0Z"/></svg>