<?xml version="1.0" encoding="UTF-8"?><svg id="Layer_2" xmlns="http://www.w3.org/2000/svg" width="167" height="50" viewBox="0 0 167 50"><defs><style>.cls-1{fill:#f57971;}.cls-2{fill:#f8eb00;}.cls-3{fill:#ff1e1c;}.cls-4{fill:#c8b1dd;}.cls-5{fill:#1956ff;}.cls-6{fill:#2befe5;}</style></defs><g><g><path class="cls-3" d="M69.67,30.04l-5.46-23.26h2.1l4.39,19.27,4.13-19.27h2.07l-5.25,23.26h-1.98Z"/><path class="cls-3" d="M79.66,30.04V6.78h2.18V30.04h-2.18Z"/><path class="cls-3" d="M85.98,30.04V6.78h2.18V28.4h6.6v1.64h-8.79Z"/><path class="cls-3" d="M96.95,30.04V6.78h5.05c1.63,0,2.9,.28,3.8,.85,.91,.56,1.56,1.36,1.94,2.4,.38,1.03,.57,2.23,.57,3.59v9.25c0,1.44-.19,2.69-.57,3.78-.38,1.08-1.01,1.92-1.9,2.51-.88,.59-2.1,.89-3.65,.89h-5.25Zm2.18-1.64h2.93c1.22,0,2.12-.25,2.7-.76,.57-.51,.94-1.21,1.09-2.1,.15-.89,.23-1.9,.23-3.03V13.84c0-1.17-.1-2.15-.3-2.94-.2-.79-.59-1.4-1.18-1.81-.58-.41-1.46-.62-2.63-.62h-2.84V28.4Z"/><path class="cls-3" d="M116.85,30.32c-1.26,0-2.31-.26-3.14-.79-.83-.53-1.46-1.26-1.88-2.21-.42-.95-.68-2.05-.78-3.32l1.92-.57c.1,.96,.27,1.82,.52,2.6,.25,.78,.64,1.39,1.18,1.84,.54,.45,1.27,.67,2.21,.67,1.03,0,1.84-.27,2.41-.8,.57-.54,.86-1.39,.86-2.56,0-1.03-.25-1.92-.76-2.67-.51-.75-1.2-1.53-2.08-2.35l-4.11-3.93c-.73-.71-1.26-1.44-1.61-2.2-.34-.76-.52-1.58-.52-2.48,0-1.61,.48-2.84,1.44-3.7,.96-.86,2.23-1.29,3.82-1.29,.82,0,1.56,.11,2.23,.32,.66,.21,1.22,.55,1.69,1.02,.47,.47,.84,1.08,1.11,1.82,.27,.75,.45,1.66,.55,2.73l-1.87,.49c-.08-.98-.23-1.81-.47-2.51-.24-.7-.61-1.23-1.12-1.59-.51-.36-1.21-.55-2.11-.55-.96,0-1.74,.25-2.35,.75-.61,.5-.92,1.27-.92,2.33,0,.63,.12,1.21,.36,1.72,.24,.52,.67,1.07,1.28,1.67l4.11,3.88c.92,.86,1.71,1.82,2.38,2.87,.67,1.05,1,2.24,1,3.56,0,1.17-.23,2.14-.67,2.93-.45,.79-1.08,1.37-1.88,1.77-.8,.39-1.73,.59-2.79,.59Z"/><path class="cls-3" d="M125.09,30.04V6.78h2.21v12.29l6.2-12.29h2.1l-4.77,9.99,5.8,13.27h-2.15l-5.11-11.63-2.07,3.79v7.84h-2.21Z"/><path class="cls-3" d="M144.3,30.32c-1.57,0-2.79-.28-3.66-.85-.87-.56-1.47-1.35-1.79-2.35-.33-1.01-.49-2.15-.49-3.43V6.78h2.12V23.75c0,.9,.1,1.72,.3,2.46,.2,.74,.58,1.32,1.13,1.74,.55,.42,1.35,.63,2.38,.63s1.77-.22,2.33-.65c.55-.43,.94-1.01,1.16-1.74,.22-.73,.33-1.54,.33-2.44V6.78h2.1V23.69c0,1.28-.17,2.43-.52,3.43-.34,1.01-.95,1.79-1.81,2.35-.86,.56-2.06,.85-3.59,.85Z"/><path class="cls-3" d="M154.03,30.04V6.78h5.05c1.63,0,2.9,.28,3.8,.85,.91,.56,1.56,1.36,1.94,2.4,.38,1.03,.57,2.23,.57,3.59v9.25c0,1.44-.19,2.69-.57,3.78-.38,1.08-1.01,1.92-1.9,2.51-.88,.59-2.1,.89-3.65,.89h-5.25Zm2.18-1.64h2.93c1.22,0,2.12-.25,2.7-.76,.57-.51,.94-1.21,1.09-2.1,.15-.89,.23-1.9,.23-3.03V13.84c0-1.17-.1-2.15-.3-2.94-.2-.79-.59-1.4-1.18-1.81-.58-.41-1.46-.62-2.63-.62h-2.84V28.4Z"/></g><g><path class="cls-1" d="M65.3,43.33v-7.5h-1.08v-.51h1.08v-1.08c0-.34,.03-.65,.08-.92,.05-.27,.17-.49,.35-.65,.18-.16,.48-.24,.87-.24,.12,0,.24,0,.37,.02,.13,.01,.25,.04,.36,.08v.55c-.09-.03-.19-.05-.3-.06s-.2-.02-.28-.02c-.31,0-.51,.1-.6,.29-.08,.19-.12,.51-.12,.94v1.1h1.35v.51h-1.35v7.5h-.74Z"/><path class="cls-1" d="M70.21,43.45c-.43,0-.79-.09-1.1-.26-.3-.17-.54-.48-.7-.93-.16-.45-.24-1.08-.24-1.91v-2.14c0-.84,.08-1.48,.25-1.91,.17-.43,.4-.73,.71-.89,.31-.16,.67-.24,1.09-.24,.5,0,.89,.11,1.18,.32,.29,.21,.49,.55,.61,1.02,.12,.47,.18,1.08,.18,1.85v.76h-3.29v1.28c0,.64,.04,1.14,.13,1.5,.09,.36,.23,.62,.42,.76s.44,.22,.75,.22c.19,0,.39-.03,.58-.1,.19-.06,.36-.22,.49-.46,.13-.24,.19-.61,.19-1.12v-.6h.72v.53c0,.68-.14,1.24-.42,1.66s-.8,.64-1.56,.64Zm-1.3-4.76h2.57v-.62c0-.48-.03-.89-.08-1.24-.05-.35-.16-.61-.34-.8s-.45-.28-.83-.28c-.3,0-.54,.06-.74,.19-.2,.12-.34,.36-.44,.69-.09,.34-.14,.82-.14,1.46v.61Z"/><path class="cls-1" d="M75.39,43.45c-.63,0-1.13-.21-1.5-.62-.37-.41-.58-.97-.64-1.67l.62-.18c.05,.68,.2,1.16,.46,1.46,.26,.3,.62,.45,1.07,.45,.41,0,.72-.11,.94-.34,.22-.23,.33-.55,.33-.96,0-.29-.09-.58-.28-.89-.19-.31-.49-.64-.89-.98l-.93-.79c-.4-.34-.69-.67-.87-.98-.19-.31-.28-.66-.28-1.06,0-.37,.08-.68,.23-.93,.15-.25,.36-.44,.64-.58,.27-.13,.59-.2,.95-.2,.6,0,1.05,.19,1.35,.57s.45,.89,.47,1.53l-.54,.17c0-.42-.07-.75-.17-1s-.25-.43-.43-.54c-.18-.11-.39-.17-.63-.17-.35,0-.64,.09-.85,.27-.22,.18-.33,.45-.33,.8,0,.3,.06,.55,.17,.77,.12,.22,.33,.47,.65,.76l.96,.85c.24,.2,.47,.42,.69,.65,.22,.23,.4,.49,.55,.77,.14,.28,.22,.62,.22,1.01s-.08,.72-.24,.99c-.16,.27-.39,.48-.68,.63-.29,.15-.64,.22-1.03,.22Z"/><path class="cls-1" d="M80.28,43.41c-.37,0-.65-.07-.83-.22s-.3-.35-.36-.6c-.06-.25-.08-.53-.08-.85v-5.95h-1.05v-.49h1.05v-2.57h.74v2.57h1.36v.49h-1.36v5.85c0,.43,.04,.74,.12,.92,.08,.18,.27,.26,.57,.26,.09,0,.19,0,.3-.02s.21-.03,.3-.05v.57c-.11,.03-.24,.05-.37,.06s-.26,.02-.37,.02Z"/><path class="cls-1" d="M82.27,34.26v-1.28h.75v1.28h-.75Zm0,9.07v-8.02h.75v8.02h-.75Z"/><path class="cls-1" d="M86.1,43.33l-1.84-8.02h.75l1.5,7.09,1.47-7.09h.71l-1.76,8.02h-.82Z"/><path class="cls-1" d="M91.08,43.45c-.32,0-.61-.07-.85-.22-.24-.15-.43-.35-.56-.62-.13-.26-.2-.57-.2-.91s.04-.64,.13-.89,.25-.49,.48-.71c.23-.22,.56-.46,.99-.7,.43-.25,.99-.53,1.67-.85v-.57c0-.58-.03-1.04-.1-1.36s-.19-.55-.35-.68c-.16-.13-.38-.19-.66-.19-.21,0-.42,.04-.61,.11-.19,.07-.35,.22-.48,.44s-.19,.54-.19,.96v.21h-.72c0-.77,.15-1.34,.46-1.71,.31-.37,.83-.56,1.56-.56,.67,0,1.15,.21,1.41,.64,.27,.43,.4,1.11,.4,2.07v4.04c0,.07,0,.22,0,.42,0,.21,0,.41,.01,.6,0,.19,.01,.32,.02,.37h-.64c-.02-.19-.04-.4-.07-.61-.03-.21-.05-.37-.06-.46-.12,.33-.33,.61-.62,.85s-.65,.35-1.05,.35Zm.18-.61c.23,0,.44-.05,.62-.16,.18-.11,.35-.25,.5-.42,.15-.17,.27-.35,.36-.55v-2.63c-.49,.26-.9,.48-1.23,.67s-.59,.36-.78,.53c-.19,.17-.33,.35-.41,.56s-.12,.46-.12,.76c0,.48,.11,.81,.33,.98,.22,.18,.46,.26,.72,.26Z"/><path class="cls-1" d="M95.13,43.33v-11.23h.74v11.23h-.74Z"/><path class="cls-1" d="M100.72,43.33v-7.5h-1.08v-.51h1.08v-1.08c0-.34,.03-.65,.08-.92,.05-.27,.17-.49,.35-.65,.18-.16,.48-.24,.87-.24,.12,0,.24,0,.37,.02,.13,.01,.25,.04,.36,.08v.55c-.09-.03-.19-.05-.3-.06s-.2-.02-.28-.02c-.31,0-.51,.1-.6,.29-.08,.19-.12,.51-.12,.94v1.1h1.35v.51h-1.35v7.5h-.74Z"/><path class="cls-1" d="M105.6,43.45c-.53,0-.94-.12-1.23-.35-.29-.23-.49-.57-.61-1.03-.12-.45-.17-1.01-.17-1.68v-2.16c0-.67,.06-1.22,.17-1.68,.12-.45,.32-.8,.61-1.03,.29-.23,.7-.35,1.23-.35s.95,.12,1.24,.35c.29,.23,.49,.57,.61,1.02,.12,.45,.17,1.01,.17,1.68v2.16c0,.67-.06,1.23-.17,1.68-.12,.45-.32,.79-.61,1.03-.29,.23-.71,.35-1.24,.35Zm0-.55c.39,0,.67-.1,.86-.3,.19-.2,.3-.48,.35-.85s.08-.81,.08-1.32v-2.22c0-.52-.03-.96-.08-1.32s-.17-.65-.35-.85c-.19-.2-.47-.3-.86-.3s-.67,.1-.85,.3c-.18,.2-.3,.48-.35,.85s-.08,.81-.08,1.32v2.22c0,.51,.03,.95,.08,1.32s.17,.65,.35,.85c.18,.2,.46,.3,.85,.3Z"/><path class="cls-1" d="M109.15,43.33v-8.02h.74v1.08c.24-.4,.54-.69,.89-.88,.36-.19,.69-.28,1.01-.28h.06s.05,0,.08,.01v.76s-.09-.03-.15-.03c-.06,0-.11,0-.16,0-.37,0-.7,.09-.99,.26-.29,.18-.54,.43-.74,.76v6.34h-.74Z"/><path class="cls-1" d="M117.42,43.45c-.63,0-1.13-.21-1.5-.62-.37-.41-.58-.97-.64-1.67l.62-.18c.05,.68,.2,1.16,.46,1.46,.26,.3,.62,.45,1.07,.45,.41,0,.72-.11,.94-.34,.22-.23,.33-.55,.33-.96,0-.29-.09-.58-.28-.89-.19-.31-.49-.64-.89-.98l-.93-.79c-.4-.34-.69-.67-.87-.98-.19-.31-.28-.66-.28-1.06,0-.37,.08-.68,.23-.93,.15-.25,.36-.44,.64-.58,.27-.13,.59-.2,.95-.2,.6,0,1.05,.19,1.35,.57s.45,.89,.47,1.53l-.54,.17c0-.42-.07-.75-.17-1s-.25-.43-.43-.54c-.18-.11-.39-.17-.63-.17-.35,0-.64,.09-.85,.27-.22,.18-.33,.45-.33,.8,0,.3,.06,.55,.17,.77,.12,.22,.33,.47,.65,.76l.96,.85c.24,.2,.47,.42,.69,.65,.22,.23,.4,.49,.55,.77,.14,.28,.22,.62,.22,1.01s-.08,.72-.24,.99c-.16,.27-.39,.48-.68,.63-.29,.15-.64,.22-1.03,.22Z"/><path class="cls-1" d="M122.41,43.45c-.6,0-1.04-.14-1.33-.42-.29-.28-.47-.66-.56-1.13s-.13-1-.13-1.58v-1.89c0-.79,.06-1.42,.18-1.89,.12-.48,.33-.82,.62-1.03,.3-.21,.7-.32,1.22-.32,.55,0,.97,.11,1.26,.34s.47,.54,.56,.93c.09,.39,.14,.83,.14,1.32v.32h-.69v-.32c0-.55-.04-.96-.13-1.26s-.22-.49-.41-.61c-.19-.12-.43-.17-.72-.17-.36,0-.63,.09-.82,.26s-.31,.45-.37,.83c-.06,.38-.1,.89-.1,1.53v2.08c0,.87,.09,1.5,.26,1.89,.17,.39,.52,.58,1.05,.58,.36,0,.63-.08,.81-.24,.18-.16,.3-.4,.35-.74,.06-.33,.08-.76,.08-1.29v-.3h.69v.29c0,.54-.04,1.02-.12,1.44-.08,.43-.26,.76-.54,1.01-.28,.25-.71,.37-1.29,.37Z"/><path class="cls-1" d="M127.62,43.45c-.43,0-.79-.09-1.1-.26-.3-.17-.54-.48-.7-.93-.16-.45-.24-1.08-.24-1.91v-2.14c0-.84,.08-1.48,.25-1.91,.17-.43,.4-.73,.71-.89,.31-.16,.67-.24,1.09-.24,.5,0,.89,.11,1.18,.32,.29,.21,.49,.55,.61,1.02,.12,.47,.18,1.08,.18,1.85v.76h-3.29v1.28c0,.64,.04,1.14,.13,1.5,.09,.36,.23,.62,.42,.76s.44,.22,.75,.22c.19,0,.39-.03,.58-.1,.19-.06,.36-.22,.49-.46,.13-.24,.19-.61,.19-1.12v-.6h.72v.53c0,.68-.14,1.24-.42,1.66s-.8,.64-1.56,.64Zm-1.3-4.76h2.57v-.62c0-.48-.03-.89-.08-1.24-.05-.35-.16-.61-.34-.8s-.45-.28-.83-.28c-.3,0-.54,.06-.74,.19-.2,.12-.34,.36-.44,.69-.09,.34-.14,.82-.14,1.46v.61Z"/><path class="cls-1" d="M130.99,43.33v-8.02h.74v.86c.25-.3,.54-.53,.86-.71s.67-.27,1.04-.27c.24,0,.46,.06,.64,.17,.19,.12,.34,.3,.45,.55,.11,.25,.17,.59,.17,1.02v6.39h-.74v-6.31c0-.49-.08-.82-.23-1s-.36-.26-.62-.26-.54,.08-.81,.24c-.27,.16-.53,.38-.77,.64v6.69h-.74Z"/><path class="cls-1" d="M138.3,43.45c-.43,0-.79-.09-1.1-.26-.3-.17-.54-.48-.7-.93-.16-.45-.24-1.08-.24-1.91v-2.14c0-.84,.08-1.48,.25-1.91,.17-.43,.4-.73,.71-.89,.31-.16,.67-.24,1.09-.24,.5,0,.89,.11,1.18,.32,.29,.21,.49,.55,.61,1.02,.12,.47,.18,1.08,.18,1.85v.76h-3.29v1.28c0,.64,.04,1.14,.13,1.5,.09,.36,.23,.62,.42,.76s.44,.22,.75,.22c.19,0,.39-.03,.58-.1,.19-.06,.36-.22,.49-.46,.13-.24,.19-.61,.19-1.12v-.6h.72v.53c0,.68-.14,1.24-.42,1.66s-.8,.64-1.56,.64Zm-1.3-4.76h2.57v-.62c0-.48-.03-.89-.08-1.24-.05-.35-.16-.61-.34-.8s-.45-.28-.83-.28c-.3,0-.54,.06-.74,.19-.2,.12-.34,.36-.44,.69-.09,.34-.14,.82-.14,1.46v.61Z"/><path class="cls-1" d="M141.67,43.33v-11.23h.74v7.41l2.98-4.19h.79l-2.11,3.07,2,4.95h-.75l-1.8-4.51-1.11,1.5v3.01h-.74Z"/><path class="cls-1" d="M148.18,43.45c-.24,0-.46-.06-.64-.17-.19-.12-.34-.3-.45-.55-.11-.25-.17-.59-.17-1.02v-6.39h.74v6.31c0,.49,.08,.82,.23,1,.15,.18,.36,.26,.62,.26,.29,0,.57-.09,.86-.27,.29-.18,.55-.41,.79-.7v-6.6h.72v8.02h-.72v-.94c-.26,.32-.56,.58-.89,.78-.34,.19-.7,.29-1.07,.29Z"/><path class="cls-1" d="M152.46,43.33v-8.02h.74v.86c.25-.3,.54-.53,.86-.71s.67-.27,1.04-.27c.24,0,.46,.06,.64,.17,.19,.12,.34,.3,.45,.55,.11,.25,.17,.59,.17,1.02v6.39h-.74v-6.31c0-.49-.08-.82-.23-1s-.36-.26-.62-.26-.54,.08-.81,.24c-.27,.16-.53,.38-.77,.64v6.69h-.74Z"/><path class="cls-1" d="M159.7,43.45c-.63,0-1.13-.21-1.5-.62-.37-.41-.58-.97-.64-1.67l.62-.18c.05,.68,.2,1.16,.46,1.46,.26,.3,.62,.45,1.07,.45,.41,0,.72-.11,.94-.34,.22-.23,.33-.55,.33-.96,0-.29-.09-.58-.28-.89-.19-.31-.49-.64-.89-.98l-.93-.79c-.4-.34-.69-.67-.87-.98-.19-.31-.28-.66-.28-1.06,0-.37,.08-.68,.23-.93,.15-.25,.36-.44,.64-.58,.27-.13,.59-.2,.95-.2,.6,0,1.05,.19,1.35,.57s.45,.89,.47,1.53l-.54,.17c0-.42-.07-.75-.17-1s-.25-.43-.43-.54c-.18-.11-.39-.17-.63-.17-.35,0-.64,.09-.85,.27-.22,.18-.33,.45-.33,.8,0,.3,.06,.55,.17,.77,.12,.22,.33,.47,.65,.76l.96,.85c.24,.2,.47,.42,.69,.65,.22,.23,.4,.49,.55,.77,.14,.28,.22,.62,.22,1.01s-.08,.72-.24,.99c-.16,.27-.39,.48-.68,.63-.29,.15-.64,.22-1.03,.22Z"/><path class="cls-1" d="M164.58,43.41c-.37,0-.65-.07-.83-.22s-.3-.35-.36-.6c-.06-.25-.08-.53-.08-.85v-5.95h-1.05v-.49h1.05v-2.57h.74v2.57h1.36v.49h-1.36v5.85c0,.43,.04,.74,.12,.92,.08,.18,.27,.26,.57,.26,.09,0,.19,0,.3-.02s.21-.03,.3-.05v.57c-.11,.03-.24,.05-.37,.06s-.26,.02-.37,.02Z"/></g></g><g><ellipse class="cls-1" cx="30.03" cy="26.41" rx="22.63" ry="13.42"/><path class="cls-6" d="M30.31,35.45c-.53,.08-1.1,.1-1.67,.09-.07,0-.14,0-.21,0,.65-.04,1.27-.07,1.88-.09Z"/><path class="cls-2" d="M45.78,43.43c-2.11,2.51-8.57,4.88-10.2,4.39-1.63-.5-3.1-.67-4.85-.88-1.74-.2-3.99,.79-5.45,1.31-1.47,.52-5.78-.27-9.75-2.12-3.96-1.85-5.13-4.63-6.52-7.28-.83-1.56-1.31-4.12-1.61-6.03,1.22,.59,2.48,1.37,3.86,2.84,3.14,3.34,2.58,7.2,7.74,8.12,5.16,.92,8.23-3.35,14.44-2.72,3.97,.4,11.35,.42,13.58-1.27,3.11-2.36,4.55-4.82,5.63-6.78-.07,.7-.25,1.61-.66,2.6-.93,2.23-4.1,5.31-6.21,7.83Z"/><path class="cls-5" d="M41.83,27.11c-1.69-2.75-4.95-1.52-7.92-2.53-2.96-1.02-6.78-3.35-9.39-4.01-2.61-.66-5.74,2.61-6.14,4.43-.48,2.21,1.3,2.8,.28,4.47-.67,1.1-1.67,2.85-.21,4.46,.64,.71,1.91,1.77,3.13,2.74,.26-.07,.52-.13,.77-.2,2.18-.52,4.21-.8,6.05-.93-3.76-.17-6.74-2.25-6.67-4.7,.06-2.5,3.25-4.46,7.13-4.37,3.87,.09,6.96,2.2,6.9,4.7-.05,2.14-2.37,3.87-5.45,4.28,3.74-.07,6.51,.42,7.9,.56,.06,0,.13,.01,.2,.01,.34,.02,.68,.04,1,.03,.54-.34,1.01-.76,1.33-1.3,1.59-2.61,2.78-4.91,1.08-7.66Z"/><path class="cls-4" d="M54.5,30.12c-.67,.69-1.19,1.69-1.85,2.88-1.08,1.96-2.52,4.42-5.63,6.78-2.23,1.69-9.61,1.68-13.58,1.27-6.21-.63-9.28,3.64-14.44,2.72-5.16-.91-4.6-4.77-7.74-8.12-1.38-1.46-2.64-2.25-3.86-2.84-1.58-.76-3.1-1.21-4.74-2.41-2.83-2.07,.83-10.33,1.04-10.78v-.02c1.3,5.78,4.71,7.2,6.95,8.24,.17,.08,.34,.16,.49,.23,1.25,.61,3.06,3.64,5.1,5.97,1.57,1.8,3.27,3.18,4.94,2.72,.13-.04,.27-.07,.4-.1,.26-.07,.52-.13,.77-.2,2.18-.52,4.21-.8,6.05-.93,0,0,.02,0,.03,0,.07,0,.14,0,.21,0,.57,.01,1.14-.02,1.67-.09,3.74-.07,6.51,.42,7.9,.56,.06,0,.13,.01,.2,.01,.34,.02,.68,.04,1,.03,3.05-.02,5.15-1.23,6.06-1.7,.23-.12,.55-.42,.94-.84,1.35-1.48,3.48-4.37,5.04-5.44,.18-.13,.39-.24,.62-.35,.01,.19,0,.38-.01,.59-.11,1.38,1.25,1.61,2.99,1.21-.2,.22-.38,.42-.54,.59Z"/><path class="cls-3" d="M55.04,29.53c-1.74,.41-3.1,.18-2.99-1.21,.02-.2,.02-.4,.01-.59-.14-3.2-3.85-4.06-6.93-5-3.27-.99-5.18-5.38-7.13-6.86-1.96-1.48-5.74-2.71-8.54-2.12-2.8,.59-7.17,2.72-9.07,3.71-1.9,.99-5.78-.51-8.82,2.58-2.13,2.17-1.49,5.81-.92,7.79-2.24-1.03-5.65-2.46-6.94-8.24v.02c-.15-.98-.34-1.91-.68-2.49-.92-1.56,1.64-5.16,3.38-5.54,1.73-.38,5-1.04,7.06-2.29,2.05-1.25,3.53-3.44,5.39-4.61,1.86-1.16,4.67-.73,6.22-.87,1.54-.14,3.05-.58,8.99-1.97,5.94-1.39,11.81,2.97,13.25,4.21,1.44,1.24,1.48,4.56,4.36,8.18,2.88,3.62,2.75,2.54,6.02,4.46,3.27,1.93,3.56,3.1,3.89,5.96,.21,1.79-3.68,4.19-6.55,4.86Z"/></g></svg>