<?xml version="1.0" encoding="UTF-8"?><svg id="Layer_2" xmlns="http://www.w3.org/2000/svg" width="63" height="50" viewBox="0 0 63 50"><defs><style>.cls-1{fill:#f57971;}.cls-2{fill:#f8eb00;}.cls-3{fill:#ff1e1c;}.cls-4{fill:#c8b1dd;}.cls-5{fill:#1956ff;}.cls-6{fill:#2befe5;}</style></defs><ellipse class="cls-1" cx="29.93" cy="26.41" rx="22.63" ry="13.42"/><path class="cls-6" d="M30.22,35.45c-.53,.08-1.1,.1-1.67,.09-.07,0-.14,0-.21,0,.65-.04,1.27-.07,1.88-.09Z"/><path class="cls-2" d="M45.69,43.43c-2.11,2.51-8.57,4.88-10.2,4.39-1.63-.5-3.1-.67-4.85-.88-1.74-.2-3.99,.79-5.45,1.31-1.47,.52-5.78-.27-9.75-2.12-3.96-1.85-5.13-4.63-6.52-7.28-.83-1.56-1.31-4.12-1.61-6.03,1.22,.59,2.48,1.37,3.86,2.84,3.14,3.34,2.58,7.2,7.74,8.12,5.16,.92,8.23-3.35,14.44-2.72,3.97,.4,11.35,.42,13.58-1.27,3.11-2.36,4.55-4.82,5.63-6.78-.07,.7-.25,1.61-.66,2.6-.93,2.23-4.1,5.31-6.21,7.83Z"/><path class="cls-5" d="M41.73,27.11c-1.69-2.75-4.95-1.52-7.92-2.53-2.96-1.02-6.78-3.35-9.39-4.01-2.61-.66-5.74,2.61-6.14,4.43-.48,2.21,1.3,2.8,.28,4.47-.67,1.1-1.67,2.85-.21,4.46,.64,.71,1.91,1.77,3.13,2.74,.26-.07,.52-.13,.77-.2,2.18-.52,4.21-.8,6.05-.93-3.76-.17-6.74-2.25-6.67-4.7,.06-2.5,3.25-4.46,7.13-4.37,3.87,.09,6.96,2.2,6.9,4.7-.05,2.14-2.37,3.87-5.45,4.28,3.74-.07,6.51,.42,7.9,.56,.06,0,.13,.01,.2,.01,.34,.02,.68,.04,1,.03,.54-.34,1.01-.76,1.33-1.3,1.59-2.61,2.78-4.91,1.08-7.66Z"/><path class="cls-4" d="M54.4,30.12c-.67,.69-1.19,1.69-1.85,2.88-1.08,1.96-2.52,4.42-5.63,6.78-2.23,1.69-9.61,1.68-13.58,1.27-6.21-.63-9.28,3.64-14.44,2.72-5.16-.91-4.6-4.77-7.74-8.12-1.38-1.46-2.64-2.25-3.86-2.84-1.58-.76-3.1-1.21-4.74-2.41-2.83-2.07,.83-10.33,1.04-10.78v-.02c1.3,5.78,4.71,7.2,6.95,8.24,.17,.08,.34,.16,.49,.23,1.25,.61,3.06,3.64,5.1,5.97,1.57,1.8,3.27,3.18,4.94,2.72,.13-.04,.27-.07,.4-.1,.26-.07,.52-.13,.77-.2,2.18-.52,4.21-.8,6.05-.93,0,0,.02,0,.03,0,.07,0,.14,0,.21,0,.57,.01,1.14-.02,1.67-.09,3.74-.07,6.51,.42,7.9,.56,.06,0,.13,.01,.2,.01,.34,.02,.68,.04,1,.03,3.05-.02,5.15-1.23,6.06-1.7,.23-.12,.55-.42,.94-.84,1.35-1.48,3.48-4.37,5.04-5.44,.18-.13,.39-.24,.62-.35,.01,.19,0,.38-.01,.59-.11,1.38,1.25,1.61,2.99,1.21-.2,.22-.38,.42-.54,.59Z"/><path class="cls-3" d="M54.94,29.53c-1.74,.41-3.1,.18-2.99-1.21,.02-.2,.02-.4,.01-.59-.14-3.2-3.85-4.06-6.93-5-3.27-.99-5.18-5.38-7.13-6.86-1.96-1.48-5.74-2.71-8.54-2.12-2.8,.59-7.17,2.72-9.07,3.71-1.9,.99-5.78-.51-8.82,2.58-2.13,2.17-1.49,5.81-.92,7.79-2.24-1.03-5.65-2.46-6.94-8.24v.02c-.15-.98-.34-1.91-.68-2.49-.92-1.56,1.64-5.16,3.38-5.54,1.73-.38,5-1.04,7.06-2.29,2.05-1.25,3.53-3.44,5.39-4.61,1.86-1.16,4.67-.73,6.22-.87,1.54-.14,3.05-.58,8.99-1.97,5.94-1.39,11.81,2.97,13.25,4.21,1.44,1.24,1.48,4.56,4.36,8.18,2.88,3.62,2.75,2.54,6.02,4.46,3.27,1.93,3.56,3.1,3.89,5.96,.21,1.79-3.68,4.19-6.55,4.86Z"/></svg>